<svg width="180" height="74" viewBox="0 0 180 74" fill="none" xmlns="http://www.w3.org/2000/svg">
<g clip-path="url(#clip0_3152_14635)">
<path d="M55.3084 28.7295C56.018 28.9844 56.1981 29.5749 56.1968 30.3146C56.1855 37.0817 56.1787 43.8489 56.1765 50.616C56.1781 50.6449 56.1815 50.6737 56.1867 50.7023C56.1137 50.8469 56.1894 51.0147 56.1261 51.1609C55.9774 51.9567 55.7316 52.7317 55.3941 53.469C54.7745 54.7129 53.8044 55.7532 52.6008 56.4645C50.6553 57.6704 48.719 58.8938 46.7796 60.1111C44.7468 61.387 42.7143 62.6633 40.6821 63.9401C39.3798 64.7545 38.1016 65.6149 36.7647 66.3631C36.5813 66.4029 36.3909 66.3995 36.2091 66.353C36.0119 66.2925 35.8369 66.1765 35.7053 66.0191C35.5738 65.8617 35.4915 65.6698 35.4685 65.4669C35.4164 64.902 35.4491 64.3356 35.4475 63.77C35.4423 61.9248 35.4464 60.0797 35.4441 58.2345C35.4641 58.0761 35.4533 57.9153 35.4121 57.761C35.4201 57.6022 35.4354 57.4434 35.4351 57.2846C35.4257 52.2119 35.423 47.1391 35.3946 42.0665C35.3651 41.7808 35.4216 41.4928 35.5569 41.2386C35.6922 40.9844 35.9003 40.7754 36.1551 40.6376C41.7997 37.0734 47.423 33.4692 53.05 29.8721C53.6293 29.4278 54.2536 29.0442 54.913 28.7275C55.0417 28.6867 55.1801 28.6874 55.3084 28.7295Z" fill="#FEB000"/>
<path d="M14.5304 29.9756C14.7389 30.1606 14.9787 30.3077 15.239 30.41C15.3745 30.4295 15.5038 30.4789 15.6174 30.5543C15.7311 30.6298 15.8262 30.7295 15.8957 30.8461C15.9306 30.8947 15.9756 30.9355 16.0277 30.9656C16.0798 30.9957 16.1378 31.0145 16.1978 31.0208C16.582 31.1253 16.923 31.347 17.1726 31.6541C17.2677 31.7799 17.4077 31.8651 17.5641 31.8925C17.6997 31.9132 17.8291 31.9631 17.9429 32.0388C18.0568 32.1145 18.1525 32.2142 18.223 32.3306C18.4313 32.5161 18.6716 32.6632 18.9324 32.765C19.0676 32.7849 19.1966 32.8345 19.3101 32.91C19.4235 32.9855 19.5185 33.0851 19.5881 33.2015C19.6229 33.2505 19.6681 33.2914 19.7205 33.3215C19.7729 33.3516 19.8313 33.3701 19.8916 33.3757C20.1304 33.4879 20.4136 33.5213 20.5506 33.8142C20.759 33.9991 20.9988 34.1462 21.259 34.2486C21.3946 34.2679 21.524 34.3171 21.6377 34.3927C21.7514 34.4683 21.8464 34.5682 21.9157 34.685C22.1811 34.9044 22.4746 35.0881 22.7887 35.2312C22.8751 35.2283 22.9603 35.2518 23.0326 35.2986C23.105 35.3454 23.1609 35.4132 23.1927 35.4926C23.2878 35.6185 23.4278 35.7037 23.5842 35.7309C23.7199 35.7516 23.8492 35.8016 23.9631 35.8773C24.077 35.953 24.1726 36.0526 24.2432 36.169C24.4513 36.3545 24.6912 36.5018 24.9516 36.6039C25.0871 36.6234 25.2164 36.6727 25.33 36.7482C25.4436 36.8236 25.5387 36.9233 25.6083 37.0399C25.6433 37.0885 25.6884 37.1291 25.7404 37.1592C25.7925 37.1893 25.8504 37.2082 25.9104 37.2146C26.2942 37.3196 26.6352 37.5408 26.8853 37.8472C26.9802 37.9737 27.1207 38.0593 27.2777 38.086C27.413 38.1072 27.542 38.1573 27.6557 38.233C27.7693 38.3086 27.8649 38.4079 27.9358 38.5238C28.2011 38.7432 28.4947 38.9267 28.8089 39.0697C28.8954 39.0666 28.9806 39.0902 29.053 39.1371C29.1253 39.184 29.1812 39.2519 29.2128 39.3315C29.3081 39.457 29.448 39.542 29.6042 39.5695C29.74 39.5899 29.8695 39.6398 29.9835 39.7156C30.0974 39.7915 30.193 39.8913 30.2632 40.0081C30.4717 40.193 30.7116 40.34 30.9718 40.4423C31.1083 40.4605 31.2386 40.5102 31.3521 40.5872C31.4657 40.6642 31.5594 40.7665 31.6258 40.8859C31.9067 41.2139 32.0501 41.6359 32.0263 42.0651C32.0264 44.0228 32.0386 45.9805 32.0464 47.9382C32.0763 48.0653 32.0846 48.1964 32.0709 48.3263C32.0719 53.9405 32.0718 59.5546 32.0707 65.1688C32.0867 65.2984 32.077 65.4298 32.0422 65.5556C31.8973 65.897 31.6383 66.1788 31.3084 66.3538C31.1257 66.4027 30.9332 66.4028 30.7505 66.3541C30.2017 66.1347 29.6865 65.841 29.2196 65.4812C27.9323 64.717 26.6735 63.896 25.4059 63.0927C24.0929 62.2606 22.7865 61.416 21.4708 60.5891C19.8464 59.5682 18.2094 58.571 16.5896 57.5419C15.6639 57.0042 14.7685 56.4172 13.9072 55.7834C13.0312 55.0559 12.3529 54.1235 11.9339 53.0708C11.6272 52.3833 11.4427 51.6487 11.3888 50.8991C11.3603 50.7716 11.3524 50.6405 11.3654 50.5106C11.3645 43.6759 11.3646 36.8413 11.3655 30.0068C11.3513 29.877 11.3599 29.7457 11.3909 29.6188C11.4228 29.4615 11.4926 29.3142 11.5943 29.1892C11.696 29.0643 11.8266 28.9654 11.9751 28.9008C12.1236 28.8363 12.2856 28.8081 12.4474 28.8185C12.6093 28.829 12.7662 28.8778 12.9049 28.9609C13.2663 29.1688 13.6146 29.4034 13.9688 29.6259C14.0862 29.6259 14.2013 29.6587 14.3007 29.7206C14.4 29.7825 14.4797 29.8709 14.5304 29.9756Z" fill="#FE005F"/>
<path d="M28.1011 34.4255L27.3887 33.9384C27.0948 33.963 26.9553 33.6787 26.7365 33.5532L26.1911 33.1834C25.8742 33.0989 25.5893 32.9241 25.3719 32.6809L24.825 32.3118C24.5596 32.2646 24.3233 32.1169 24.1663 31.9001L23.7388 31.6298C23.3769 31.5172 23.053 31.3092 22.8017 31.0283C22.6285 30.9483 22.4698 30.8408 22.3318 30.7101C22.0377 30.7355 21.8984 30.4507 21.6795 30.3253L20.9669 29.8394C20.6736 29.8622 20.5338 29.5788 20.3149 29.4532L19.7683 29.0839C19.5028 29.037 19.2663 28.8893 19.1093 28.6724L18.2368 28.0982C18.1366 28.0915 18.0394 28.061 17.9537 28.0091C17.868 27.9573 17.7963 27.8857 17.7447 27.8004C17.5716 27.7203 17.4129 27.6128 17.2749 27.482C16.9806 27.508 16.8414 27.2229 16.6225 27.0976L15.9101 26.6105C15.6162 26.6351 15.4768 26.3508 15.2579 26.2252C15.0624 26.0897 14.8599 25.9643 14.6512 25.8497C14.4905 25.7527 14.3573 25.617 14.264 25.4554C14.1707 25.2938 14.1202 25.1114 14.1173 24.9253C14.1144 24.7392 14.1593 24.5554 14.2476 24.3911C14.3359 24.2267 14.4648 24.0871 14.6224 23.9853C16.2268 22.9843 17.8346 21.9896 19.4374 20.9855C21.6198 19.6184 23.8004 18.2479 25.9792 16.874C27.5704 15.8734 29.1436 14.8364 30.7608 13.8883C31.4341 13.4779 32.2027 13.2452 32.993 13.2125C33.2016 13.1108 33.4306 13.2302 33.6404 13.1418C33.652 13.1375 33.6644 13.1356 33.6767 13.1362C33.6891 13.1368 33.7012 13.1398 33.7124 13.1452C33.7642 13.2148 33.8014 13.294 33.8217 13.3781C33.842 13.4622 33.8449 13.5495 33.8304 13.6347C33.832 19.8817 33.8319 26.1287 33.8299 32.3757C33.8303 32.4479 33.8257 32.52 33.8162 32.5916C33.8106 32.6403 33.7933 32.687 33.7657 32.7277C33.7381 32.7684 33.701 32.8019 33.6575 32.8254C32.2557 33.514 30.9932 34.4715 29.6519 35.2768C29.6284 35.2902 29.604 35.3021 29.5789 35.3125C29.4154 35.3541 29.311 35.2602 29.2233 35.1283C29.0501 35.0484 28.8914 34.9409 28.7535 34.81C28.4592 34.8359 28.32 34.5508 28.1011 34.4255Z" fill="#0080FC"/>
<path d="M33.804 13.1433L34.3357 13.1365C34.4698 13.214 34.6241 13.1346 34.7597 13.2009C36.4033 13.4869 37.7214 14.5425 39.1177 15.4018C41.4657 16.8468 43.7955 18.3267 46.1318 19.7944C48.3761 21.2043 50.6203 22.6144 52.8644 24.0246C53.0572 24.1623 53.2118 24.3459 53.3139 24.5584C53.3589 24.7578 53.3594 24.9646 53.3155 25.1643C53.17 25.4643 52.932 25.7109 52.6359 25.8687C47.8464 28.9211 43.0584 31.9763 38.2719 35.0343C38.1463 35.1145 38.0207 35.1948 37.8951 35.2752C36.9125 34.7496 35.9979 34.094 35.045 33.5116C34.7068 33.283 34.3534 33.0773 33.9873 32.8957C33.8586 32.8391 33.7377 32.7783 33.7593 32.5891C33.7605 26.2766 33.7615 19.965 33.7622 13.6542C33.7324 13.4832 33.7468 13.3074 33.804 13.1433Z" fill="#006EC4"/>
<path d="M33.7913 32.7495C34.0874 32.7901 34.3659 32.913 34.5941 33.1039C35.621 33.7442 36.6454 34.389 37.6674 35.0384C37.7524 35.1083 37.8289 35.1878 37.8952 35.2753C36.8691 35.9378 35.843 36.6005 34.8171 37.2635C34.7159 37.329 34.6198 37.4037 34.5213 37.4741C34.4659 37.5753 34.3851 37.6608 34.2868 37.7224C34.1884 37.7839 34.0758 37.8195 33.9595 37.8258C33.6465 38.0261 33.3986 37.8085 33.146 37.6651C32.9027 37.5271 32.671 37.365 32.4341 37.2135C32.1899 37.2024 32.0627 36.9722 31.8728 36.8595L31.2408 36.4146C30.9757 36.3634 30.7414 36.2116 30.5881 35.9917L29.714 35.4351C29.6707 35.4343 29.6293 35.4173 29.5981 35.3875C29.567 35.3577 29.5485 35.3173 29.5464 35.2745C30.0572 34.8735 30.5979 34.5114 31.164 34.1911C31.7638 33.7941 32.3729 33.4133 32.9815 33.0322C33.1931 32.8648 33.451 32.7646 33.7212 32.7448C33.7466 32.7106 33.7698 32.7138 33.7913 32.7495Z" fill="#00539A"/>
</g>
<g clip-path="url(#clip1_3152_14635)">
<path d="M69.9408 45.0678V42.2466H72.489V32.6437H69.9408V29.8225H78.2904V32.6437H75.7421V42.2466H78.2904V45.0678H69.9408ZM81.3808 45.0678V33.566H84.3086L84.417 35.8989L83.8206 36.1702C83.9823 35.6325 84.2813 35.1463 84.6881 34.7596C85.1264 34.3254 85.6411 33.9759 86.2062 33.7288C86.7854 33.4683 87.4148 33.3386 88.0496 33.349C88.8099 33.3147 89.5637 33.5032 90.2184 33.8915C90.8278 34.2415 91.29 34.8004 91.5196 35.4649C91.8482 36.2921 91.9961 37.18 91.9533 38.0691V45.1221H88.8629V38.2319C88.8894 37.787 88.8152 37.342 88.646 36.9298C88.5051 36.6203 88.2795 36.357 87.9954 36.1702C87.6682 35.9792 87.2866 35.9028 86.9111 35.9532C86.5791 35.9543 86.2495 36.0093 85.9351 36.116C85.6648 36.2279 85.4097 36.3738 85.1761 36.55C84.9659 36.7483 84.7996 36.9886 84.6881 37.2553C84.5771 37.531 84.5218 37.8261 84.5255 38.1233V45.0136H82.1399C81.8891 45.0551 81.635 45.0732 81.3808 45.0678ZM98.5137 45.0678L93.6883 33.566H97.0499L100.086 42.1381L99.3812 42.2466L102.58 33.566H105.887L100.845 45.0678H98.5137ZM112.936 45.2849C111.805 45.3037 110.688 45.0427 109.683 44.5253C108.788 44.0452 108.039 43.3331 107.514 42.4637C106.979 41.5432 106.715 40.4897 106.755 39.4254C106.758 38.5927 106.904 37.7667 107.189 36.984C107.456 36.2777 107.861 35.6321 108.381 35.0851C108.901 34.5431 109.529 34.1177 110.225 33.8373C110.962 33.5272 111.757 33.3792 112.556 33.4033C113.3 33.4057 114.037 33.5531 114.725 33.8373C115.385 34.1 115.978 34.5079 116.46 35.0309C116.962 35.5405 117.35 36.1507 117.599 36.8213C117.873 37.5477 117.984 38.3257 117.924 39.0999V40.0765H108.707L108.219 38.1776H115.376L115.05 38.5574V38.0691C115.006 37.6836 114.877 37.3128 114.671 36.984C114.448 36.6635 114.15 36.4027 113.803 36.2245C113.431 36.0459 113.023 35.9532 112.61 35.9532C112.043 35.9239 111.48 36.0556 110.984 36.333C110.553 36.5832 110.211 36.9628 110.008 37.418C109.776 37.9665 109.665 38.5588 109.683 39.1542C109.671 39.7783 109.821 40.3948 110.116 40.9445C110.419 41.4462 110.849 41.8582 111.363 42.1381C111.971 42.4335 112.64 42.5822 113.315 42.5722C113.794 42.584 114.272 42.5105 114.725 42.3551C115.215 42.1536 115.672 41.8793 116.08 41.5413L117.544 43.603C117.119 43.9892 116.645 44.3175 116.135 44.5796C115.642 44.8404 115.111 45.0234 114.562 45.1221C113.966 45.1764 113.424 45.2849 112.936 45.2849ZM120.201 45.0678V33.566H123.129L123.237 35.8989L122.641 36.1702C122.802 35.6325 123.101 35.1463 123.508 34.7596C123.947 34.3254 124.461 33.9759 125.026 33.7288C125.606 33.4683 126.235 33.3386 126.87 33.349C127.63 33.3147 128.384 33.5032 129.039 33.8915C129.648 34.2415 130.11 34.8004 130.34 35.4649C130.668 36.2921 130.816 37.18 130.774 38.0691V45.1221H127.683V38.2319C127.71 37.787 127.635 37.342 127.466 36.9298C127.325 36.6203 127.1 36.357 126.816 36.1702C126.488 35.9792 126.107 35.9028 125.731 35.9532C125.399 35.9543 125.07 36.0093 124.755 36.116C124.485 36.2279 124.23 36.3737 123.996 36.55C123.786 36.7483 123.62 36.9886 123.508 37.2553C123.397 37.531 123.342 37.8261 123.346 38.1233V45.0136H120.96C120.709 45.0519 120.455 45.07 120.201 45.0678ZM134.786 45.0678V30.6363H137.876V45.0136H134.786V45.0678ZM132.617 36.333V33.566H140.207V36.333H132.617ZM147.418 45.2849C146.323 45.2976 145.243 45.0365 144.274 44.5253C143.388 44.0091 142.643 43.2824 142.105 42.4094C141.57 41.4693 141.307 40.3983 141.346 39.3169C141.333 38.2556 141.594 37.209 142.105 36.2787C142.612 35.3816 143.365 34.6476 144.274 34.1628C145.233 33.6268 146.321 33.3641 147.418 33.4033C148.496 33.397 149.557 33.658 150.509 34.1628C151.395 34.679 152.14 35.4058 152.678 36.2787C153.213 37.1992 153.476 38.2527 153.437 39.3169C153.443 40.3947 153.182 41.4572 152.678 42.4094C152.17 43.3066 151.418 44.0405 150.509 44.5253C149.562 45.0427 148.497 45.3045 147.418 45.2849ZM147.418 42.5722C147.955 42.57 148.48 42.4198 148.937 42.1381C149.388 41.8488 149.746 41.434 149.967 40.9445C150.232 40.4245 150.362 39.8463 150.346 39.2627C150.369 38.6785 150.238 38.0987 149.967 37.5808C149.729 37.1026 149.375 36.6921 148.937 36.3872C148.48 36.1055 147.955 35.9554 147.418 35.9532C146.881 35.9477 146.354 36.0985 145.9 36.3872C145.446 36.6893 145.073 37.0994 144.816 37.5808C144.545 38.0987 144.414 38.6785 144.436 39.2627C144.42 39.8463 144.551 40.4245 144.816 40.9445C145.072 41.427 145.445 41.8374 145.9 42.1381C146.346 42.4438 146.879 42.5961 147.418 42.5722ZM155.822 45.0678V33.566H158.804L158.913 37.2553L158.371 36.4957C158.528 35.8924 158.825 35.3347 159.238 34.8681C159.609 34.4017 160.07 34.0144 160.593 33.7288C161.111 33.4524 161.687 33.3036 162.274 33.2948C162.511 33.2836 162.747 33.3019 162.979 33.349C163.196 33.4033 163.413 33.4575 163.575 33.5118L162.762 36.8755C162.561 36.7628 162.34 36.6891 162.112 36.6585C161.863 36.5958 161.609 36.5595 161.353 36.55C161.015 36.5437 160.68 36.6181 160.377 36.767C160.08 36.8779 159.818 37.065 159.618 37.3095C159.407 37.5398 159.225 37.7949 159.075 38.0691C158.969 38.3837 158.914 38.7135 158.913 39.0457V45.0136H155.822V45.0678ZM166.937 50.0592L169.431 44.1455L169.485 45.9359L163.901 33.566H167.371L170.19 40.185C170.299 40.4563 170.407 40.7275 170.515 41.0531C170.623 41.355 170.714 41.663 170.786 41.9754L170.244 42.1924C170.338 41.8976 170.446 41.6079 170.57 41.3243C170.678 40.9988 170.786 40.6733 170.895 40.2935L173.281 33.5118H176.805L171.979 45.0136L170.027 50.0049H166.937V50.0592Z" fill="black"/>
</g>
<defs>
<clipPath id="clip0_3152_14635">
<rect width="44.8355" height="53.2544" fill="white" transform="translate(11.3611 13.1361)"/>
</clipPath>
<clipPath id="clip1_3152_14635">
<rect width="106.864" height="20.2367" fill="white" transform="translate(69.9408 29.8225)"/>
</clipPath>
</defs>
</svg>
